<svg preserveAspectRatio="none" width="100%" height="100%" overflow="visible" style="display: block;" viewBox="0 0 67.2447 67.2442" fill="none" xmlns="http://www.w3.org/2000/svg">
<g id="&#229;&#164;&#141;&#229;&#144;&#136;&#229;&#189;&#162;&#231;&#138;&#182;">
<path d="M33.0091 43.7394L28.7172 48.032L24.4248 43.7394L14.001 33.3157L18.293 29.0237L28.7172 39.4474L48.9517 19.2125L53.2441 23.5051L33.0091 43.7394ZM33.6226 0C15.0534 0 0 15.0535 0 33.6221C0 52.191 15.0534 67.2442 33.6226 67.2442C52.1913 67.2442 67.2447 52.191 67.2447 33.6221C67.2447 15.0535 52.1913 0 33.6226 0Z" fill="var(--fill-0, #5E9E7C)"/>
<path fill-rule="evenodd" clip-rule="evenodd" d="M33.0091 43.7394L28.7172 48.032L24.4248 43.7394L14.001 33.3157L18.293 29.0237L28.7172 39.4474L48.9517 19.2125L53.2441 23.5051L33.0091 43.7394ZM33.6226 0C15.0534 0 0 15.0535 0 33.6221C0 52.191 15.0534 67.2442 33.6226 67.2442C52.1913 67.2442 67.2447 52.191 67.2447 33.6221C67.2447 15.0535 52.1913 0 33.6226 0Z" fill="var(--fill-0, #5E9E7C)"/>
</g>
</svg>
