<svg preserveAspectRatio="none" width="100%" height="100%" overflow="visible" style="display: block;" viewBox="0 0 642.111 192" fill="none" xmlns="http://www.w3.org/2000/svg">
<g id="Frame 8">
<path id="&#229;&#164;&#141;&#229;&#144;&#136;&#229;&#189;&#162;&#231;&#138;&#182;" d="M615.209 192H26.791C11.9945 192 0 180.005 0 165.209V45.7908C0 30.9947 11.9945 19 26.791 19H615.209C630.005 19 642 30.9947 642 45.7908V165.209C642 180.005 630.005 192 615.209 192Z" fill="var(--fill-0, #2F6652)"/>
<path id="&#229;&#164;&#141;&#229;&#144;&#136;&#229;&#189;&#162;&#231;&#138;&#182;_2" d="M615.32 173H26.9022C12.1058 173 0.111328 161.005 0.111328 146.209V26.7909C0.111328 11.9947 12.1058 0 26.9022 0H615.32C630.117 0 642.111 11.9947 642.111 26.7909V146.209C642.111 161.005 630.117 173 615.32 173Z" fill="var(--fill-0, #427C60)"/>
</g>
</svg>
