<svg preserveAspectRatio="none" width="100%" height="100%" overflow="visible" style="display: block;" viewBox="0 0 34.8742 34.874" fill="none" xmlns="http://www.w3.org/2000/svg">
<g id="Icon_Check">
<path d="M17.1191 22.684L14.8932 24.9102L12.6671 22.684L7.26116 17.2781L9.48706 15.0522L14.8932 20.4581L25.3872 9.96393L27.6133 12.1901L17.1191 22.684ZM17.4373 0C7.80695 0 0 7.807 0 17.437C0 27.0671 7.80695 34.874 17.4373 34.874C27.0673 34.874 34.8742 27.0671 34.8742 17.437C34.8742 7.807 27.0673 0 17.4373 0Z" fill="var(--fill-0, #5E9E7C)"/>
<path fill-rule="evenodd" clip-rule="evenodd" d="M17.1191 22.684L14.8932 24.9102L12.6671 22.684L7.26116 17.2781L9.48706 15.0522L14.8932 20.4581L25.3872 9.96393L27.6133 12.1901L17.1191 22.684ZM17.4373 0C7.80695 0 0 7.807 0 17.437C0 27.0671 7.80695 34.874 17.4373 34.874C27.0673 34.874 34.8742 27.0671 34.8742 17.437C34.8742 7.807 27.0673 0 17.4373 0Z" fill="var(--fill-0, #5E9E7C)"/>
</g>
</svg>
