<svg preserveAspectRatio="none" width="100%" height="100%" overflow="visible" style="display: block;" viewBox="0 0 26.3381 55.595" fill="none" xmlns="http://www.w3.org/2000/svg">
<g id="Vector">
<path d="M7.7719 9.3946V9.8073C7.7719 11.3779 9.0451 12.6508 10.6153 12.6508H15.7223C17.293 12.6508 18.5661 11.3779 18.5661 9.8073V9.3946C19.3781 9.3281 20.0169 8.649 20.0169 7.8197V7.1524C20.0169 6.3231 19.3781 5.6441 18.5661 5.5776V3.9461C18.5661 3.5374 18.5037 3.1433 18.3886 2.7725C18.2734 2.402 18.105 2.0546 17.892 1.7398C17.8209 1.6347 17.7454 1.5333 17.6647 1.436C17.1019 0.7537 16.3144 0.2639 15.4151 0.08C15.1582 0.0274 14.892 0 14.6197 0H11.7179C11.4456 0 11.1799 0.0274 10.9229 0.08C10.0237 0.2639 9.2362 0.7537 8.6729 1.436C8.5926 1.5333 8.5167 1.6347 8.446 1.7398C8.2331 2.0546 8.0647 2.402 7.9491 2.7725C7.8339 3.1433 7.7719 3.5374 7.7719 3.9461V5.5776C6.9595 5.6444 6.3212 6.3231 6.3212 7.1524V7.8197C6.3212 8.649 6.96 9.3281 7.7719 9.3946Z" fill="var(--fill-0, #475163)"/>
<path d="M25.7255 19.5267L25.729 19.5249C24.5073 16.4167 21.7067 14.3157 18.4431 13.9804C18.4226 13.9783 18.4025 13.9768 18.382 13.9746C18.2673 13.9635 18.1521 13.9548 18.036 13.9482C18.0024 13.9464 17.9688 13.9442 17.9348 13.9427C17.7978 13.9364 17.6599 13.9322 17.5212 13.9322H17.4736C17.4444 13.931 17.4156 13.9277 17.3859 13.9277H8.9517C8.9225 13.9277 8.8937 13.931 8.8644 13.9322H8.8164C8.6781 13.9322 8.5403 13.9364 8.4028 13.9427C8.3692 13.9442 8.3356 13.9464 8.3016 13.9482C8.186 13.9548 8.0708 13.9635 7.956 13.9746C7.9355 13.9768 7.915 13.9783 7.895 13.9804C4.6314 14.3157 1.8303 16.4167 0.6087 19.5249L0.6126 19.5267C0.2186 20.5254 0 21.6114 0 22.7486V36.096H5.7942V22.7486C5.7942 22.3335 5.8788 21.9377 6.0306 21.5774C6.0319 21.5738 6.0337 21.5708 6.035 21.5672C6.1515 21.2938 6.3072 21.0416 6.4953 20.8165V55.595H12.6468V37.6049H13.6913V55.595H19.8428V20.8165C20.0304 21.0416 20.1861 21.2938 20.3026 21.5672C20.3044 21.5708 20.3057 21.5738 20.307 21.5774C20.4593 21.9377 20.5435 22.3335 20.5435 22.7486V36.096H26.3381V22.7486C26.3381 21.6114 26.119 20.5254 25.7255 19.5267Z" fill="var(--fill-0, #475163)"/>
</g>
</svg>
