<svg preserveAspectRatio="none" width="100%" height="100%" overflow="visible" style="display: block;" viewBox="0 0 39.0987 39.0988" fill="none" xmlns="http://www.w3.org/2000/svg">
<g id="logo_ico">
<path d="M19.5491 2.4956C10.1458 2.4956 2.4956 10.1459 2.4956 19.5492C2.4956 28.9529 10.1458 36.6032 19.5491 36.6032C28.9528 36.6032 36.603 28.9529 36.603 19.5492C36.603 10.1459 28.9528 2.4956 19.5491 2.4956ZM19.5491 39.0988C8.7697 39.0988 0 30.3291 0 19.5492C0 8.7697 8.7697 0 19.5491 0C30.3289 0 39.0987 8.7697 39.0987 19.5492C39.0987 30.3291 30.3289 39.0988 19.5491 39.0988Z" fill="var(--fill-0, #667584)"/>
<path fill-rule="evenodd" clip-rule="evenodd" d="M19.5491 2.4956C10.1458 2.4956 2.4956 10.1459 2.4956 19.5492C2.4956 28.9529 10.1458 36.6032 19.5491 36.6032C28.9528 36.6032 36.603 28.9529 36.603 19.5492C36.603 10.1459 28.9528 2.4956 19.5491 2.4956ZM19.5491 39.0988C8.7697 39.0988 0 30.3291 0 19.5492C0 8.7697 8.7697 0 19.5491 0C30.3289 0 39.0987 8.7697 39.0987 19.5492C39.0987 30.3291 30.3289 39.0988 19.5491 39.0988Z" fill="var(--fill-0, #667584)"/>
<path d="M32.4358 19.156C32.4643 21.9736 31.5865 24.5873 30.0733 26.7238C29.8595 27.0228 29.6344 27.3148 29.3962 27.5939L27.9117 26.1402L27.4531 25.689C27.6542 25.4441 27.8443 25.1898 28.0208 24.9264C29.1241 23.2876 29.7601 21.308 29.7382 19.1835C29.6813 13.5993 25.1055 9.11852 19.5201 9.17531C13.9326 9.2327 9.44971 13.8058 9.50663 19.3904C9.52159 20.8422 9.84213 22.2215 10.4085 23.464L17.5926 16.135L21.379 19.8407L25.3976 15.7394L27.4124 17.7127L21.4566 23.7866L17.5759 19.9881L9.91049 27.8077L9.8864 27.808C7.90796 25.5712 6.69648 22.6405 6.66365 19.4194C6.59087 12.3048 12.3006 6.48005 19.4168 6.40731C26.5351 6.33446 32.3627 12.0414 32.4358 19.156Z" fill="var(--fill-0, #667584)"/>
</g>
</svg>
