<svg preserveAspectRatio="none" width="100%" height="100%" overflow="visible" style="display: block;" viewBox="0 0 20.2773 20.2773" fill="none" xmlns="http://www.w3.org/2000/svg">
<g id="Icon_Logo_Group">
<path d="M10.1385 1.29426C5.26179 1.29426 1.29426 5.26184 1.29426 10.1385C1.29426 15.0155 5.26179 18.983 10.1385 18.983C15.0154 18.983 18.9829 15.0155 18.9829 10.1385C18.9829 5.26184 15.0154 1.29426 10.1385 1.29426ZM10.1385 20.2773C4.54812 20.2773 0 15.7292 0 10.1385C0 4.54812 4.54812 0 10.1385 0C15.7291 0 20.2773 4.54812 20.2773 10.1385C20.2773 15.7292 15.7291 20.2773 10.1385 20.2773Z" fill="var(--fill-0, #667584)"/>
<path fill-rule="evenodd" clip-rule="evenodd" d="M10.1385 1.29426C5.26179 1.29426 1.29426 5.26184 1.29426 10.1385C1.29426 15.0155 5.26179 18.983 10.1385 18.983C15.0154 18.983 18.9829 15.0155 18.9829 10.1385C18.9829 5.26184 15.0154 1.29426 10.1385 1.29426ZM10.1385 20.2773C4.54812 20.2773 0 15.7292 0 10.1385C0 4.54812 4.54812 0 10.1385 0C15.7291 0 20.2773 4.54812 20.2773 10.1385C20.2773 15.7292 15.7291 20.2773 10.1385 20.2773Z" fill="var(--fill-0, #667584)"/>
<path d="M16.8218 9.93465C16.8365 11.3959 16.3813 12.7514 15.5965 13.8594C15.4857 14.0145 15.3689 14.1659 15.2453 14.3107L14.4755 13.5568L14.2377 13.3227C14.342 13.1957 14.4405 13.0639 14.5321 12.9273C15.1043 12.0774 15.4341 11.0507 15.4227 9.94891C15.3932 7.05281 13.0201 4.72902 10.1235 4.75847C7.2257 4.78824 4.90078 7.1599 4.9303 10.0562C4.93806 10.8091 5.1043 11.5245 5.39803 12.1688L9.1238 8.36788L11.0875 10.2897L13.1716 8.1627L14.2165 9.1861L11.1278 12.3361L9.11516 10.3662L5.13975 14.4216L5.12726 14.4217C4.1012 13.2617 3.47291 11.7417 3.45588 10.0712C3.41814 6.38149 6.37931 3.36066 10.0699 3.32294C13.7616 3.28516 16.7839 6.24489 16.8218 9.93465Z" fill="var(--fill-0, #667584)"/>
</g>
</svg>
