<svg preserveAspectRatio="none" width="100%" height="100%" overflow="visible" style="display: block;" viewBox="0 0 13.6594 28.8325" fill="none" xmlns="http://www.w3.org/2000/svg">
<g id="Icon_Silhouette_Man">
<path d="M4.03064 4.8722V5.08623C4.03064 5.90077 4.69094 6.56092 5.50527 6.56092H8.15385C8.96844 6.56092 9.62869 5.90077 9.62869 5.08623V4.8722C10.0498 4.83771 10.3811 4.48552 10.3811 4.05543V3.70936C10.3811 3.27927 10.0498 2.92713 9.62869 2.89264V2.04651C9.62869 1.83456 9.59633 1.63017 9.53664 1.43787C9.4769 1.24572 9.38956 1.06555 9.2791 0.90229C9.24222 0.847783 9.20307 0.795196 9.16121 0.744734C8.86934 0.390882 8.46092 0.136863 7.99453 0.0414894C7.8613 0.0142101 7.72324 0 7.58202 0H6.0771C5.93588 0 5.79809 0.0142101 5.6648 0.0414894C5.19846 0.136863 4.79005 0.390882 4.49791 0.744734C4.45627 0.795196 4.4169 0.847783 4.38024 0.90229C4.26982 1.06555 4.18249 1.24572 4.12254 1.43787C4.06279 1.63017 4.03064 1.83456 4.03064 2.04651V2.89264C3.60931 2.92728 3.27828 3.27927 3.27828 3.70936V4.05543C3.27828 4.48552 3.60957 4.83771 4.03064 4.8722Z" fill="var(--fill-0, #475163)"/>
<path d="M13.3417 10.1269L13.3435 10.126C12.7099 8.514 11.2575 7.42438 9.56491 7.25049C9.55427 7.2494 9.54385 7.24862 9.53322 7.24748C9.47373 7.24173 9.41399 7.23721 9.35378 7.23379C9.33635 7.23286 9.31893 7.23172 9.30129 7.23094C9.23024 7.22767 9.15873 7.22549 9.08679 7.22549H9.06211C9.04696 7.22487 9.03203 7.22316 9.01662 7.22316H4.6425C4.62736 7.22316 4.61242 7.22487 4.59723 7.22549H4.57233C4.50061 7.22549 4.42914 7.22767 4.35784 7.23094C4.34041 7.23172 4.32298 7.23286 4.30535 7.23379C4.2454 7.23721 4.18565 7.24173 4.12612 7.24748C4.11549 7.24862 4.10485 7.2494 4.09448 7.25049C2.40192 7.42438 0.949225 8.514 0.315682 10.126L0.317705 10.1269C0.11337 10.6448 0 11.2081 0 11.7978V18.72H3.00497V11.7978C3.00497 11.5826 3.04885 11.3773 3.12757 11.1904C3.12825 11.1886 3.12918 11.187 3.12985 11.1851C3.19027 11.0433 3.27102 10.9125 3.36857 10.7958V28.8325H6.55885V19.5026H7.10054V28.8325H10.2908V10.7958C10.3881 10.9125 10.4689 11.0433 10.5293 11.1851C10.5302 11.187 10.5309 11.1886 10.5316 11.1904C10.6105 11.3773 10.6542 11.5826 10.6542 11.7978V18.72H13.6594V11.7978C13.6594 11.2081 13.5458 10.6448 13.3417 10.1269Z" fill="var(--fill-0, #475163)"/>
</g>
</svg>
